<mxfile host="app.diagrams.net" modified="2023-10-17T12:33:47.046Z" agent="Mozilla/5.0 (X11; Ubuntu; Linux x86_64; rv:109.0) Gecko/20100101 Firefox/118.0" etag="VAN3C6gclPZyMuPB0aQX" version="22.0.4" type="github">
  <diagram id="R2lEEEUBdFMjLlhIrx00" name="Page-1">
    <mxGraphModel dx="1593" dy="748" grid="1" gridSize="10" guides="1" tooltips="1" connect="1" arrows="1" fold="1" page="1" pageScale="1" pageWidth="1920" pageHeight="1200" math="0" shadow="0" extFonts="Permanent Marker^https://fonts.googleapis.com/css?family=Permanent+Marker">
      <root>
        <mxCell id="0" />
        <mxCell id="1" parent="0" />
        <mxCell id="cCLrs_CAnp8vthAAdHYO-9" value="&lt;div&gt;Scalability&lt;/div&gt;" style="swimlane;whiteSpace=wrap;html=1;fillColor=#e1d5e7;strokeColor=#9673a6;" vertex="1" parent="1">
          <mxGeometry x="20" y="20" width="350" height="290" as="geometry" />
        </mxCell>
        <mxCell id="cCLrs_CAnp8vthAAdHYO-12" value="&lt;div&gt;Horizontal Duplication&lt;/div&gt;" style="swimlane;whiteSpace=wrap;html=1;startSize=40;fillColor=#e1d5e7;strokeColor=#9673a6;" vertex="1" parent="cCLrs_CAnp8vthAAdHYO-9">
          <mxGeometry x="20" y="42.5" width="140" height="177.5" as="geometry" />
        </mxCell>
        <mxCell id="cCLrs_CAnp8vthAAdHYO-14" value="Reactive Autoscaling" style="rounded=1;whiteSpace=wrap;html=1;fillColor=#e1d5e7;strokeColor=#9673a6;" vertex="1" parent="cCLrs_CAnp8vthAAdHYO-12">
          <mxGeometry x="10" y="57.5" width="120" height="40" as="geometry" />
        </mxCell>
        <mxCell id="cCLrs_CAnp8vthAAdHYO-15" value="Proactive Autoscaling" style="rounded=1;whiteSpace=wrap;html=1;fillColor=#e1d5e7;strokeColor=#9673a6;" vertex="1" parent="cCLrs_CAnp8vthAAdHYO-12">
          <mxGeometry x="10" y="117.5" width="120" height="40" as="geometry" />
        </mxCell>
        <mxCell id="cCLrs_CAnp8vthAAdHYO-13" value="&lt;div&gt;Vertical Decomposition&lt;/div&gt;" style="swimlane;whiteSpace=wrap;html=1;startSize=40;fillColor=#e1d5e7;strokeColor=#9673a6;" vertex="1" parent="cCLrs_CAnp8vthAAdHYO-9">
          <mxGeometry x="190" y="42.5" width="140" height="225" as="geometry">
            <mxRectangle x="190" y="42.5" width="170" height="40" as="alternateBounds" />
          </mxGeometry>
        </mxCell>
        <mxCell id="cCLrs_CAnp8vthAAdHYO-17" value="&lt;div&gt;Logical Coupling&lt;br&gt;&lt;/div&gt;" style="rounded=1;whiteSpace=wrap;html=1;fillColor=#e1d5e7;strokeColor=#9673a6;" vertex="1" parent="cCLrs_CAnp8vthAAdHYO-13">
          <mxGeometry x="10" y="47.5" width="120" height="40" as="geometry" />
        </mxCell>
        <mxCell id="cCLrs_CAnp8vthAAdHYO-18" value="Semantic Coupling" style="rounded=1;whiteSpace=wrap;html=1;fillColor=#e1d5e7;strokeColor=#9673a6;" vertex="1" parent="cCLrs_CAnp8vthAAdHYO-13">
          <mxGeometry x="10" y="97.5" width="120" height="40" as="geometry" />
        </mxCell>
        <mxCell id="cCLrs_CAnp8vthAAdHYO-19" value="Contributor Coupling" style="rounded=1;whiteSpace=wrap;html=1;fillColor=#e1d5e7;strokeColor=#9673a6;" vertex="1" parent="cCLrs_CAnp8vthAAdHYO-13">
          <mxGeometry x="10" y="157.5" width="120" height="40" as="geometry" />
        </mxCell>
        <mxCell id="cCLrs_CAnp8vthAAdHYO-21" value="Performance" style="swimlane;whiteSpace=wrap;html=1;fillColor=#d5e8d4;strokeColor=#82b366;" vertex="1" parent="1">
          <mxGeometry x="400" y="20" width="870" height="290" as="geometry" />
        </mxCell>
        <mxCell id="cCLrs_CAnp8vthAAdHYO-26" value="Resource Management and Allocation" style="swimlane;whiteSpace=wrap;html=1;startSize=35;fillColor=#d5e8d4;strokeColor=#82b366;" vertex="1" parent="cCLrs_CAnp8vthAAdHYO-21">
          <mxGeometry x="20" y="55" width="200" height="200" as="geometry" />
        </mxCell>
        <mxCell id="cCLrs_CAnp8vthAAdHYO-30" value="Performance Model" style="rounded=1;whiteSpace=wrap;html=1;fillColor=#d5e8d4;strokeColor=#82b366;" vertex="1" parent="cCLrs_CAnp8vthAAdHYO-26">
          <mxGeometry x="30" y="45" width="120" height="40" as="geometry" />
        </mxCell>
        <mxCell id="cCLrs_CAnp8vthAAdHYO-31" value="Orchestration Engine" style="rounded=1;whiteSpace=wrap;html=1;fillColor=#d5e8d4;strokeColor=#82b366;" vertex="1" parent="cCLrs_CAnp8vthAAdHYO-26">
          <mxGeometry x="30" y="95" width="120" height="40" as="geometry" />
        </mxCell>
        <mxCell id="cCLrs_CAnp8vthAAdHYO-32" value="Evolutionary Algorithms" style="rounded=1;whiteSpace=wrap;html=1;fillColor=#d5e8d4;strokeColor=#82b366;" vertex="1" parent="cCLrs_CAnp8vthAAdHYO-26">
          <mxGeometry x="30" y="145" width="120" height="40" as="geometry" />
        </mxCell>
        <mxCell id="cCLrs_CAnp8vthAAdHYO-27" value="Load Balancing" style="swimlane;whiteSpace=wrap;html=1;startSize=35;fillColor=#d5e8d4;strokeColor=#82b366;" vertex="1" parent="cCLrs_CAnp8vthAAdHYO-21">
          <mxGeometry x="230" y="55" width="200" height="200" as="geometry" />
        </mxCell>
        <mxCell id="cCLrs_CAnp8vthAAdHYO-33" value="Centralized Load Balancing" style="rounded=1;whiteSpace=wrap;html=1;fillColor=#d5e8d4;strokeColor=#82b366;" vertex="1" parent="cCLrs_CAnp8vthAAdHYO-27">
          <mxGeometry x="30" y="65" width="120" height="40" as="geometry" />
        </mxCell>
        <mxCell id="cCLrs_CAnp8vthAAdHYO-34" value="Distributed Load Balancing" style="rounded=1;whiteSpace=wrap;html=1;fillColor=#d5e8d4;strokeColor=#82b366;" vertex="1" parent="cCLrs_CAnp8vthAAdHYO-27">
          <mxGeometry x="30" y="125" width="120" height="40" as="geometry" />
        </mxCell>
        <mxCell id="cCLrs_CAnp8vthAAdHYO-28" value="Containerization" style="swimlane;whiteSpace=wrap;html=1;startSize=35;fillColor=#d5e8d4;strokeColor=#82b366;" vertex="1" parent="cCLrs_CAnp8vthAAdHYO-21">
          <mxGeometry x="440" y="55" width="200" height="200" as="geometry" />
        </mxCell>
        <mxCell id="cCLrs_CAnp8vthAAdHYO-37" value="" style="rounded=1;whiteSpace=wrap;html=1;fillColor=#d5e8d4;strokeColor=#82b366;" vertex="1" parent="cCLrs_CAnp8vthAAdHYO-28">
          <mxGeometry x="30" y="55" width="130" height="115" as="geometry" />
        </mxCell>
        <mxCell id="cCLrs_CAnp8vthAAdHYO-29" value="Profiling" style="swimlane;whiteSpace=wrap;html=1;startSize=35;fillColor=#d5e8d4;strokeColor=#82b366;" vertex="1" parent="cCLrs_CAnp8vthAAdHYO-21">
          <mxGeometry x="650" y="55" width="190" height="200" as="geometry" />
        </mxCell>
        <mxCell id="cCLrs_CAnp8vthAAdHYO-38" value="" style="rounded=1;whiteSpace=wrap;html=1;fillColor=#d5e8d4;strokeColor=#82b366;" vertex="1" parent="cCLrs_CAnp8vthAAdHYO-29">
          <mxGeometry x="30" y="55" width="120" height="115" as="geometry" />
        </mxCell>
        <mxCell id="cCLrs_CAnp8vthAAdHYO-22" value="Availability" style="swimlane;whiteSpace=wrap;html=1;fillColor=#dae8fc;strokeColor=#6c8ebf;" vertex="1" parent="1">
          <mxGeometry x="20" y="360" width="380" height="360" as="geometry" />
        </mxCell>
        <mxCell id="cCLrs_CAnp8vthAAdHYO-23" value="Monitorability" style="swimlane;whiteSpace=wrap;html=1;fillColor=#706050;strokeColor=#6D1F00;fontColor=#ffffff;" vertex="1" parent="1">
          <mxGeometry x="1230" y="370" width="380" height="290" as="geometry" />
        </mxCell>
        <mxCell id="cCLrs_CAnp8vthAAdHYO-25" value="Testability" style="swimlane;whiteSpace=wrap;html=1;fillColor=#f8cecc;strokeColor=#b85450;" vertex="1" parent="1">
          <mxGeometry x="420" y="370" width="380" height="290" as="geometry" />
        </mxCell>
        <mxCell id="cCLrs_CAnp8vthAAdHYO-24" value="Security" style="swimlane;whiteSpace=wrap;html=1;fillColor=#fff2cc;strokeColor=#d6b656;" vertex="1" parent="1">
          <mxGeometry x="820" y="370" width="380" height="290" as="geometry" />
        </mxCell>
      </root>
    </mxGraphModel>
  </diagram>
</mxfile>
